<svg xmlns="http://www.w3.org/2000/svg" viewBox="0 0 64 64">
  <rect width="64" height="64" rx="10" fill="#0e1a2b"/>
  <g fill="#5fa3c4">
    <!-- 5 cols x 6 rows, cell=8 gap=1.5, start x=7, start y=6 -->
    <!-- Row 0 (orange at col 3) -->
    <rect x="7"    y="6"  width="8" height="8"/>
    <rect x="16.5" y="6"  width="8" height="8"/>
    <rect x="26"   y="6"  width="8" height="8"/>
    <rect x="35.5" y="6"  width="8" height="8" fill="#e07a3c"/>
    <rect x="45"   y="6"  width="8" height="8"/>
    <!-- Row 1 -->
    <rect x="7"    y="15.5" width="8" height="8"/>
    <rect x="16.5" y="15.5" width="8" height="8"/>
    <rect x="26"   y="15.5" width="8" height="8"/>
    <rect x="35.5" y="15.5" width="8" height="8"/>
    <rect x="45"   y="15.5" width="8" height="8"/>
    <!-- Row 2 -->
    <rect x="7"    y="25"   width="8" height="8"/>
    <rect x="16.5" y="25"   width="8" height="8"/>
    <rect x="26"   y="25"   width="8" height="8"/>
    <rect x="35.5" y="25"   width="8" height="8"/>
    <rect x="45"   y="25"   width="8" height="8"/>
    <!-- Row 3 -->
    <rect x="7"    y="34.5" width="8" height="8"/>
    <rect x="16.5" y="34.5" width="8" height="8"/>
    <rect x="26"   y="34.5" width="8" height="8"/>
    <rect x="35.5" y="34.5" width="8" height="8"/>
    <rect x="45"   y="34.5" width="8" height="8"/>
    <!-- Row 4 -->
    <rect x="7"    y="44"   width="8" height="8"/>
    <rect x="16.5" y="44"   width="8" height="8"/>
    <rect x="26"   y="44"   width="8" height="8"/>
    <rect x="35.5" y="44"   width="8" height="8"/>
    <rect x="45"   y="44"   width="8" height="8"/>
    <!-- Row 5 -->
    <rect x="7"    y="53.5" width="8" height="5"/>
    <rect x="16.5" y="53.5" width="8" height="5"/>
    <rect x="26"   y="53.5" width="8" height="5"/>
    <rect x="35.5" y="53.5" width="8" height="5"/>
    <rect x="45"   y="53.5" width="8" height="5"/>
  </g>
</svg>
